<svg xmlns="http://www.w3.org/2000/svg" viewBox="0 0 1200 800">
  <defs>
    <linearGradient id="bgGrad" x1="0%" y1="0%" x2="100%" y2="100%">
      <stop offset="0%" stop-color="#07071a"/>
      <stop offset="50%" stop-color="#0a0c20"/>
      <stop offset="100%" stop-color="#07071a"/>
    </linearGradient>

    <!-- Bright glass fills with higher opacity -->
    <linearGradient id="glassBlue" x1="0%" y1="0%" x2="0%" y2="100%">
      <stop offset="0%" stop-color="rgba(96,165,250,0.30)"/>
      <stop offset="100%" stop-color="rgba(59,130,246,0.12)"/>
    </linearGradient>
    <linearGradient id="glassPurple" x1="0%" y1="0%" x2="0%" y2="100%">
      <stop offset="0%" stop-color="rgba(167,139,250,0.30)"/>
      <stop offset="100%" stop-color="rgba(139,92,246,0.12)"/>
    </linearGradient>
    <linearGradient id="glassGreen" x1="0%" y1="0%" x2="0%" y2="100%">
      <stop offset="0%" stop-color="rgba(52,211,153,0.30)"/>
      <stop offset="100%" stop-color="rgba(16,185,129,0.12)"/>
    </linearGradient>
    <linearGradient id="glassOrange" x1="0%" y1="0%" x2="0%" y2="100%">
      <stop offset="0%" stop-color="rgba(251,191,36,0.30)"/>
      <stop offset="100%" stop-color="rgba(245,158,11,0.12)"/>
    </linearGradient>
    <linearGradient id="glassCyan" x1="0%" y1="0%" x2="0%" y2="100%">
      <stop offset="0%" stop-color="rgba(34,211,238,0.30)"/>
      <stop offset="100%" stop-color="rgba(6,182,212,0.12)"/>
    </linearGradient>
    <linearGradient id="glassBlueBright" x1="0%" y1="0%" x2="0%" y2="100%">
      <stop offset="0%" stop-color="rgba(147,197,253,0.35)"/>
      <stop offset="100%" stop-color="rgba(59,130,246,0.15)"/>
    </linearGradient>
    <linearGradient id="glassCyanBright" x1="0%" y1="0%" x2="0%" y2="100%">
      <stop offset="0%" stop-color="rgba(103,232,249,0.35)"/>
      <stop offset="100%" stop-color="rgba(6,182,212,0.15)"/>
    </linearGradient>

    <!-- Frosted glass edge highlight -->
    <linearGradient id="glassEdge" x1="0%" y1="0%" x2="0%" y2="100%">
      <stop offset="0%" stop-color="rgba(255,255,255,0.15)"/>
      <stop offset="100%" stop-color="rgba(255,255,255,0.02)"/>
    </linearGradient>

    <!-- Filters -->
    <filter id="shadow" x="-15%" y="-15%" width="140%" height="140%">
      <feDropShadow dx="0" dy="6" stdDeviation="12" flood-color="#000" flood-opacity="0.5"/>
    </filter>
    <filter id="glowBlue" x="-30%" y="-30%" width="160%" height="160%">
      <feGaussianBlur stdDeviation="8" result="blur"/>
      <feFlood flood-color="#3b82f6" flood-opacity="0.15"/>
      <feComposite in2="blur" operator="in"/>
      <feMerge><feMergeNode/><feMergeNode in="SourceGraphic"/></feMerge>
    </filter>
    <filter id="glowPurple" x="-30%" y="-30%" width="160%" height="160%">
      <feGaussianBlur stdDeviation="8" result="blur"/>
      <feFlood flood-color="#8b5cf6" flood-opacity="0.15"/>
      <feComposite in2="blur" operator="in"/>
      <feMerge><feMergeNode/><feMergeNode in="SourceGraphic"/></feMerge>
    </filter>
    <filter id="glowGreen" x="-30%" y="-30%" width="160%" height="160%">
      <feGaussianBlur stdDeviation="8" result="blur"/>
      <feFlood flood-color="#10b981" flood-opacity="0.15"/>
      <feComposite in2="blur" operator="in"/>
      <feMerge><feMergeNode/><feMergeNode in="SourceGraphic"/></feMerge>
    </filter>
    <filter id="glowOrange" x="-30%" y="-30%" width="160%" height="160%">
      <feGaussianBlur stdDeviation="8" result="blur"/>
      <feFlood flood-color="#f59e0b" flood-opacity="0.15"/>
      <feComposite in2="blur" operator="in"/>
      <feMerge><feMergeNode/><feMergeNode in="SourceGraphic"/></feMerge>
    </filter>
    <filter id="glowCyan" x="-30%" y="-30%" width="160%" height="160%">
      <feGaussianBlur stdDeviation="8" result="blur"/>
      <feFlood flood-color="#06b6d4" flood-opacity="0.15"/>
      <feComposite in2="blur" operator="in"/>
      <feMerge><feMergeNode/><feMergeNode in="SourceGraphic"/></feMerge>
    </filter>

    <!-- Arrow markers (brighter) -->
    <marker id="arrowBlue" viewBox="0 0 10 7" refX="9" refY="3.5" markerWidth="10" markerHeight="7" orient="auto">
      <path d="M 0 0 L 10 3.5 L 0 7 z" fill="#60a5fa"/>
    </marker>
    <marker id="arrowPurple" viewBox="0 0 10 7" refX="9" refY="3.5" markerWidth="10" markerHeight="7" orient="auto">
      <path d="M 0 0 L 10 3.5 L 0 7 z" fill="#a78bfa"/>
    </marker>
    <marker id="arrowGreen" viewBox="0 0 10 7" refX="9" refY="3.5" markerWidth="10" markerHeight="7" orient="auto">
      <path d="M 0 0 L 10 3.5 L 0 7 z" fill="#34d399"/>
    </marker>
    <marker id="arrowOrange" viewBox="0 0 10 7" refX="9" refY="3.5" markerWidth="10" markerHeight="7" orient="auto">
      <path d="M 0 0 L 10 3.5 L 0 7 z" fill="#fbbf24"/>
    </marker>
    <marker id="arrowCyan" viewBox="0 0 10 7" refX="9" refY="3.5" markerWidth="10" markerHeight="7" orient="auto">
      <path d="M 0 0 L 10 3.5 L 0 7 z" fill="#22d3ee"/>
    </marker>

    <!-- Background blur rect for frosted glass containers -->
    <clipPath id="containerClip">
      <rect x="80" y="320" width="1040" height="160" rx="20"/>
    </clipPath>
    <clipPath id="agentClip">
      <rect x="80" y="530" width="1040" height="160" rx="20"/>
    </clipPath>
  </defs>

  <!-- Background -->
  <rect width="1200" height="800" fill="url(#bgGrad)"/>

  <!-- Decorative background glow orbs -->
  <circle cx="200" cy="200" r="180" fill="rgba(59,130,246,0.04)" filter="url(#glowBlue)"/>
  <circle cx="700" cy="400" r="200" fill="rgba(139,92,246,0.04)" filter="url(#glowPurple)"/>
  <circle cx="1000" cy="600" r="160" fill="rgba(16,185,129,0.04)" filter="url(#glowGreen)"/>

  <!-- Subtle grid -->
  <g opacity="0.025" stroke="#ffffff" stroke-width="0.5">
    <line x1="0" y1="0" x2="0" y2="800"/><line x1="40" y1="0" x2="40" y2="800"/>
    <line x1="80" y1="0" x2="80" y2="800"/><line x1="120" y1="0" x2="120" y2="800"/>
    <line x1="160" y1="0" x2="160" y2="800"/><line x1="200" y1="0" x2="200" y2="800"/>
    <line x1="240" y1="0" x2="240" y2="800"/><line x1="280" y1="0" x2="280" y2="800"/>
    <line x1="320" y1="0" x2="320" y2="800"/><line x1="360" y1="0" x2="360" y2="800"/>
    <line x1="400" y1="0" x2="400" y2="800"/><line x1="440" y1="0" x2="440" y2="800"/>
    <line x1="480" y1="0" x2="480" y2="800"/><line x1="520" y1="0" x2="520" y2="800"/>
    <line x1="560" y1="0" x2="560" y2="800"/><line x1="600" y1="0" x2="600" y2="800"/>
    <line x1="640" y1="0" x2="640" y2="800"/><line x1="680" y1="0" x2="680" y2="800"/>
    <line x1="720" y1="0" x2="720" y2="800"/><line x1="760" y1="0" x2="760" y2="800"/>
    <line x1="800" y1="0" x2="800" y2="800"/><line x1="840" y1="0" x2="840" y2="800"/>
    <line x1="880" y1="0" x2="880" y2="800"/><line x1="920" y1="0" x2="920" y2="800"/>
    <line x1="960" y1="0" x2="960" y2="800"/><line x1="1000" y1="0" x2="1000" y2="800"/>
    <line x1="1040" y1="0" x2="1040" y2="800"/><line x1="1080" y1="0" x2="1080" y2="800"/>
    <line x1="1120" y1="0" x2="1120" y2="800"/><line x1="1160" y1="0" x2="1160" y2="800"/>
    <line x1="0" y1="40" x2="1200" y2="40"/><line x1="0" y1="80" x2="1200" y2="80"/>
    <line x1="0" y1="120" x2="1200" y2="120"/><line x1="0" y1="160" x2="1200" y2="160"/>
    <line x1="0" y1="200" x2="1200" y2="200"/><line x1="0" y1="240" x2="1200" y2="240"/>
    <line x1="0" y1="280" x2="1200" y2="280"/><line x1="0" y1="320" x2="1200" y2="320"/>
    <line x1="0" y1="360" x2="1200" y2="360"/><line x1="0" y1="400" x2="1200" y2="400"/>
    <line x1="0" y1="440" x2="1200" y2="440"/><line x1="0" y1="480" x2="1200" y2="480"/>
    <line x1="0" y1="520" x2="1200" y2="520"/><line x1="0" y1="560" x2="1200" y2="560"/>
    <line x1="0" y1="600" x2="1200" y2="600"/><line x1="0" y1="640" x2="1200" y2="640"/>
    <line x1="0" y1="680" x2="1200" y2="680"/><line x1="0" y1="720" x2="1200" y2="720"/>
    <line x1="0" y1="760" x2="1200" y2="760"/>
  </g>

  <!-- Title -->
  <text x="600" y="42" text-anchor="middle" fill="#f1f5f9" font-size="26" font-weight="700" font-family="system-ui, 'Microsoft YaHei', 'PingFang SC', sans-serif">remoteCli 系统架构</text>
  <text x="600" y="65" text-anchor="middle" fill="#64748b" font-size="13" font-family="system-ui, 'Microsoft YaHei', 'PingFang SC', sans-serif">反向隧道远程终端系统</text>
  <line x1="340" y1="78" x2="860" y2="78" stroke="#1e293b" stroke-width="1"/>

  <!-- Layer Labels -->
  <text x="60" y="115" fill="#64748b" font-size="11" font-weight="700" font-family="system-ui, 'Microsoft YaHei', 'PingFang SC', sans-serif">客户端层</text>
  <line x1="60" y1="121" x2="130" y2="121" stroke="#334155" stroke-width="1.5"/>
  <text x="60" y="305" fill="#64748b" font-size="11" font-weight="700" font-family="system-ui, 'Microsoft YaHei', 'PingFang SC', sans-serif">网关 / 服务端</text>
  <line x1="60" y1="311" x2="130" y2="311" stroke="#334155" stroke-width="1.5"/>
  <text x="60" y="515" fill="#64748b" font-size="11" font-weight="700" font-family="system-ui, 'Microsoft YaHei', 'PingFang SC', sans-serif">代理 / 终端层</text>
  <line x1="60" y1="521" x2="130" y2="521" stroke="#334155" stroke-width="1.5"/>

  <!-- ====== CLIENT LAYER ====== -->
  <!-- Mobile Browser - bright glass blue -->
  <g filter="url(#shadow)">
    <rect x="100" y="130" width="200" height="140" rx="16" fill="url(#glassBlueBright)" stroke="rgba(147,197,253,0.45)" stroke-width="1.5"/>
    <!-- Frosted glass top highlight -->
    <line x1="116" y1="131" x2="284" y2="131" stroke="rgba(255,255,255,0.2)" stroke-width="1" stroke-linecap="round"/>
    <!-- Browser chrome -->
    <circle cx="125" cy="150" r="4" fill="#ef4444" opacity="0.8"/>
    <circle cx="140" cy="150" r="4" fill="#f59e0b" opacity="0.8"/>
    <circle cx="155" cy="150" r="4" fill="#10b981" opacity="0.8"/>
    <text x="200" y="192" text-anchor="middle" fill="#ffffff" font-size="16" font-weight="600" font-family="system-ui, 'Microsoft YaHei', 'PingFang SC', sans-serif">移动浏览器</text>
    <text x="200" y="216" text-anchor="middle" fill="#e2e8f0" font-size="12" font-family="system-ui, 'Microsoft YaHei', 'PingFang SC', sans-serif">Vue 3 + xterm.js</text>
    <text x="200" y="236" text-anchor="middle" fill="#94a3b8" font-size="11" font-family="system-ui, 'Microsoft YaHei', 'PingFang SC', sans-serif">PWA / Pinia 状态管理</text>
    <text x="200" y="254" text-anchor="middle" fill="#94a3b8" font-size="11" font-family="system-ui, 'Microsoft YaHei', 'PingFang SC', sans-serif">JWT 认证</text>
  </g>

  <!-- WebSocket Client - bright glass cyan -->
  <g filter="url(#shadow)">
    <rect x="360" y="130" width="200" height="140" rx="16" fill="url(#glassCyanBright)" stroke="rgba(103,232,249,0.45)" stroke-width="1.5"/>
    <line x1="376" y1="131" x2="544" y2="131" stroke="rgba(255,255,255,0.2)" stroke-width="1" stroke-linecap="round"/>
    <text x="460" y="175" text-anchor="middle" fill="#ffffff" font-size="14" font-weight="600" font-family="system-ui, 'Microsoft YaHei', 'PingFang SC', sans-serif">WebSocket 客户端</text>
    <text x="460" y="200" text-anchor="middle" fill="#e2e8f0" font-size="12" font-family="system-ui, 'Microsoft YaHei', 'PingFang SC', sans-serif">消息协议层</text>
    <text x="460" y="222" text-anchor="middle" fill="#94a3b8" font-size="11" font-family="system-ui, 'Microsoft YaHei', 'PingFang SC', sans-serif">session:input / output</text>
    <text x="460" y="242" text-anchor="middle" fill="#94a3b8" font-size="11" font-family="system-ui, 'Microsoft YaHei', 'PingFang SC', sans-serif">session:pause / resume</text>
  </g>

  <!-- Shared Types -->
  <g filter="url(#shadow)">
    <rect x="620" y="130" width="200" height="140" rx="16" fill="url(#glassPurple)" stroke="rgba(167,139,250,0.45)" stroke-width="1.5"/>
    <line x1="636" y1="131" x2="804" y2="131" stroke="rgba(255,255,255,0.2)" stroke-width="1" stroke-linecap="round"/>
    <text x="720" y="175" text-anchor="middle" fill="#ffffff" font-size="14" font-weight="600" font-family="system-ui, 'Microsoft YaHei', 'PingFang SC', sans-serif">共享类型定义</text>
    <text x="720" y="200" text-anchor="middle" fill="#e2e8f0" font-size="12" font-family="system-ui, 'Microsoft YaHei', 'PingFang SC', sans-serif">packages/shared</text>
    <text x="720" y="222" text-anchor="middle" fill="#94a3b8" font-size="11" font-family="system-ui, 'Microsoft YaHei', 'PingFang SC', sans-serif">Message 接口</text>
    <text x="720" y="242" text-anchor="middle" fill="#94a3b8" font-size="11" font-family="system-ui, 'Microsoft YaHei', 'PingFang SC', sans-serif">MessageType 枚举</text>
  </g>

  <!-- pnpm monorepo badge -->
  <rect x="930" y="140" width="180" height="50" rx="10" fill="rgba(100,116,139,0.15)" stroke="#475569" stroke-width="1"/>
  <text x="1020" y="162" text-anchor="middle" fill="#cbd5e1" font-size="12" font-weight="600" font-family="system-ui, 'Microsoft YaHei', 'PingFang SC', sans-serif">pnpm monorepo</text>
  <text x="1020" y="180" text-anchor="middle" fill="#94a3b8" font-size="10" font-family="system-ui, 'Microsoft YaHei', 'PingFang SC', sans-serif">4 个包</text>

  <!-- ====== SERVER LAYER ====== -->
  <!-- Cloud Server container - frosted glass -->
  <rect x="80" y="320" width="1040" height="160" rx="20" fill="rgba(30,41,59,0.30)" stroke="rgba(71,85,105,0.3)" stroke-width="1" stroke-dasharray="8,4"/>
  <!-- Container top highlight -->
  <line x1="100" y1="321" x2="1100" y2="321" stroke="rgba(255,255,255,0.06)" stroke-width="1" stroke-linecap="round"/>
  <text x="100" y="345" fill="#94a3b8" font-size="11" font-weight="700" font-family="system-ui, 'Microsoft YaHei', 'PingFang SC', sans-serif" letter-spacing="1">LINUX 云服务器</text>

  <!-- Fastify Server -->
  <g filter="url(#shadow)">
    <rect x="120" y="360" width="220" height="100" rx="14" fill="url(#glassGreen)" stroke="rgba(52,211,153,0.45)" stroke-width="1.5"/>
    <line x1="136" y1="361" x2="324" y2="361" stroke="rgba(255,255,255,0.18)" stroke-width="1" stroke-linecap="round"/>
    <text x="230" y="398" text-anchor="middle" fill="#ffffff" font-size="15" font-weight="600" font-family="system-ui, 'Microsoft YaHei', 'PingFang SC', sans-serif">Fastify 服务端</text>
    <text x="230" y="420" text-anchor="middle" fill="#e2e8f0" font-size="12" font-family="system-ui, 'Microsoft YaHei', 'PingFang SC', sans-serif">packages/server</text>
    <text x="230" y="442" text-anchor="middle" fill="#94a3b8" font-size="11" font-family="system-ui, 'Microsoft YaHei', 'PingFang SC', sans-serif">HTTP + WS 端点</text>
  </g>

  <!-- Tunnel Manager -->
  <g filter="url(#shadow)">
    <rect x="380" y="360" width="220" height="100" rx="14" fill="url(#glassOrange)" stroke="rgba(251,191,36,0.45)" stroke-width="1.5"/>
    <line x1="396" y1="361" x2="584" y2="361" stroke="rgba(255,255,255,0.18)" stroke-width="1" stroke-linecap="round"/>
    <text x="490" y="398" text-anchor="middle" fill="#ffffff" font-size="15" font-weight="600" font-family="system-ui, 'Microsoft YaHei', 'PingFang SC', sans-serif">隧道管理器</text>
    <text x="490" y="420" text-anchor="middle" fill="#e2e8f0" font-size="12" font-family="system-ui, 'Microsoft YaHei', 'PingFang SC', sans-serif">连接路由</text>
    <text x="490" y="442" text-anchor="middle" fill="#94a3b8" font-size="11" font-family="system-ui, 'Microsoft YaHei', 'PingFang SC', sans-serif">session:pause / resume</text>
  </g>

  <!-- SQLite DB -->
  <g filter="url(#shadow)">
    <rect x="640" y="360" width="200" height="100" rx="14" fill="url(#glassBlue)" stroke="rgba(96,165,250,0.45)" stroke-width="1.5"/>
    <line x1="656" y1="361" x2="824" y2="361" stroke="rgba(255,255,255,0.18)" stroke-width="1" stroke-linecap="round"/>
    <!-- DB cylinder -->
    <ellipse cx="740" cy="378" rx="36" ry="9" fill="rgba(96,165,250,0.25)" stroke="rgba(96,165,250,0.5)" stroke-width="1"/>
    <rect x="704" y="378" width="72" height="28" fill="rgba(96,165,250,0.15)" stroke="rgba(96,165,250,0.35)" stroke-width="1"/>
    <ellipse cx="740" cy="406" rx="36" ry="9" fill="rgba(96,165,250,0.25)" stroke="rgba(96,165,250,0.5)" stroke-width="1"/>
    <text x="740" y="440" text-anchor="middle" fill="#e2e8f0" font-size="12" font-family="system-ui, 'Microsoft YaHei', 'PingFang SC', sans-serif">sql.js / SQLite</text>
    <text x="740" y="458" text-anchor="middle" fill="#94a3b8" font-size="11" font-family="system-ui, 'Microsoft YaHei', 'PingFang SC', sans-serif">用户、代理、令牌</text>
  </g>

  <!-- Auth Module -->
  <g filter="url(#shadow)">
    <rect x="880" y="360" width="200" height="100" rx="14" fill="url(#glassPurple)" stroke="rgba(167,139,250,0.45)" stroke-width="1.5"/>
    <line x1="896" y1="361" x2="1064" y2="361" stroke="rgba(255,255,255,0.18)" stroke-width="1" stroke-linecap="round"/>
    <text x="980" y="398" text-anchor="middle" fill="#ffffff" font-size="15" font-weight="600" font-family="system-ui, 'Microsoft YaHei', 'PingFang SC', sans-serif">认证模块</text>
    <text x="980" y="420" text-anchor="middle" fill="#e2e8f0" font-size="12" font-family="system-ui, 'Microsoft YaHei', 'PingFang SC', sans-serif">bcryptjs + JWT</text>
    <text x="980" y="442" text-anchor="middle" fill="#94a3b8" font-size="11" font-family="system-ui, 'Microsoft YaHei', 'PingFang SC', sans-serif">令牌验证</text>
  </g>

  <!-- ====== AGENT LAYER ====== -->
  <!-- Windows Agent container -->
  <rect x="80" y="530" width="1040" height="160" rx="20" fill="rgba(30,41,59,0.30)" stroke="rgba(71,85,105,0.3)" stroke-width="1" stroke-dasharray="8,4"/>
  <line x1="100" y1="531" x2="1100" y2="531" stroke="rgba(255,255,255,0.06)" stroke-width="1" stroke-linecap="round"/>
  <text x="100" y="555" fill="#94a3b8" font-size="11" font-weight="700" font-family="system-ui, 'Microsoft YaHei', 'PingFang SC', sans-serif" letter-spacing="1">WINDOWS 代理</text>

  <!-- WebSocket Agent -->
  <g filter="url(#shadow)">
    <rect x="120" y="570" width="220" height="100" rx="14" fill="url(#glassCyanBright)" stroke="rgba(103,232,249,0.45)" stroke-width="1.5"/>
    <line x1="136" y1="571" x2="324" y2="571" stroke="rgba(255,255,255,0.18)" stroke-width="1" stroke-linecap="round"/>
    <text x="230" y="608" text-anchor="middle" fill="#ffffff" font-size="15" font-weight="600" font-family="system-ui, 'Microsoft YaHei', 'PingFang SC', sans-serif">WebSocket 代理</text>
    <text x="230" y="630" text-anchor="middle" fill="#e2e8f0" font-size="12" font-family="system-ui, 'Microsoft YaHei', 'PingFang SC', sans-serif">packages/agent</text>
    <text x="230" y="652" text-anchor="middle" fill="#94a3b8" font-size="11" font-family="system-ui, 'Microsoft YaHei', 'PingFang SC', sans-serif">注册 / 心跳</text>
  </g>

  <!-- PtyManager -->
  <g filter="url(#shadow)">
    <rect x="380" y="570" width="220" height="100" rx="14" fill="url(#glassOrange)" stroke="rgba(251,191,36,0.45)" stroke-width="1.5"/>
    <line x1="396" y1="571" x2="584" y2="571" stroke="rgba(255,255,255,0.18)" stroke-width="1" stroke-linecap="round"/>
    <text x="490" y="608" text-anchor="middle" fill="#ffffff" font-size="15" font-weight="600" font-family="system-ui, 'Microsoft YaHei', 'PingFang SC', sans-serif">PTY 管理器</text>
    <text x="490" y="630" text-anchor="middle" fill="#e2e8f0" font-size="12" font-family="system-ui, 'Microsoft YaHei', 'PingFang SC', sans-serif">node-pty</text>
    <text x="490" y="652" text-anchor="middle" fill="#94a3b8" font-size="11" font-family="system-ui, 'Microsoft YaHei', 'PingFang SC', sans-serif">缓冲 / 暂停 / 恢复</text>
  </g>

  <!-- PowerShell -->
  <g filter="url(#shadow)">
    <rect x="640" y="570" width="200" height="100" rx="14" fill="url(#glassGreen)" stroke="rgba(52,211,153,0.45)" stroke-width="1.5"/>
    <line x1="656" y1="571" x2="824" y2="571" stroke="rgba(255,255,255,0.18)" stroke-width="1" stroke-linecap="round"/>
    <text x="740" y="608" text-anchor="middle" fill="#ffffff" font-size="15" font-weight="600" font-family="system-ui, 'Microsoft YaHei', 'PingFang SC', sans-serif">PowerShell</text>
    <text x="740" y="630" text-anchor="middle" fill="#e2e8f0" font-size="12" font-family="system-ui, 'Microsoft YaHei', 'PingFang SC', sans-serif">PTY 进程</text>
    <text x="740" y="652" text-anchor="middle" fill="#94a3b8" font-size="11" font-family="system-ui, 'Microsoft YaHei', 'PingFang SC', sans-serif">终端 I/O</text>
  </g>

  <!-- Session Buffer -->
  <g filter="url(#shadow)">
    <rect x="880" y="570" width="200" height="100" rx="14" fill="url(#glassPurple)" stroke="rgba(167,139,250,0.45)" stroke-width="1.5"/>
    <line x1="896" y1="571" x2="1064" y2="571" stroke="rgba(255,255,255,0.18)" stroke-width="1" stroke-linecap="round"/>
    <text x="980" y="608" text-anchor="middle" fill="#ffffff" font-size="15" font-weight="600" font-family="system-ui, 'Microsoft YaHei', 'PingFang SC', sans-serif">会话缓冲区</text>
    <text x="980" y="630" text-anchor="middle" fill="#e2e8f0" font-size="12" font-family="system-ui, 'Microsoft YaHei', 'PingFang SC', sans-serif">30 分钟 TTL</text>
    <text x="980" y="652" text-anchor="middle" fill="#94a3b8" font-size="11" font-family="system-ui, 'Microsoft YaHei', 'PingFang SC', sans-serif">输出缓冲</text>
  </g>

  <!-- ====== ARROWS ====== -->
  <!-- Client internal -->
  <line x1="300" y1="200" x2="360" y2="200" stroke="#60a5fa" stroke-width="2" marker-end="url(#arrowBlue)"/>
  <rect x="305" y="188" width="50" height="18" rx="4" fill="#0d1025" opacity="0.9"/>
  <text x="330" y="201" text-anchor="middle" fill="#93c5fd" font-size="10" font-family="system-ui, 'Microsoft YaHei', 'PingFang SC', sans-serif">渲染</text>

  <line x1="560" y1="200" x2="620" y2="200" stroke="#60a5fa" stroke-width="2" marker-end="url(#arrowBlue)"/>
  <rect x="570" y="188" width="50" height="18" rx="4" fill="#0d1025" opacity="0.9"/>
  <text x="595" y="201" text-anchor="middle" fill="#93c5fd" font-size="10" font-family="system-ui, 'Microsoft YaHei', 'PingFang SC', sans-serif">类型</text>

  <!-- Browser to Server (WebSocket) -->
  <path d="M 200 270 C 200 295, 230 320, 230 360" stroke="#60a5fa" stroke-width="2.5" fill="none" marker-end="url(#arrowBlue)" filter="url(#glowBlue)"/>
  <rect x="175" y="303" width="96" height="20" rx="5" fill="#0d1025" opacity="0.9"/>
  <text x="223" y="317" text-anchor="middle" fill="#60a5fa" font-size="11" font-weight="600" font-family="system-ui, 'Microsoft YaHei', 'PingFang SC', sans-serif">WebSocket</text>

  <!-- Server to Agent (reverse tunnel) -->
  <path d="M 230 480 C 230 505, 230 530, 230 570" stroke="#a78bfa" stroke-width="2.5" fill="none" marker-end="url(#arrowPurple)" filter="url(#glowPurple)"/>
  <rect x="197" y="513" width="96" height="20" rx="5" fill="#0d1025" opacity="0.9"/>
  <text x="245" y="527" text-anchor="middle" fill="#a78bfa" font-size="11" font-weight="600" font-family="system-ui, 'Microsoft YaHei', 'PingFang SC', sans-serif">反向隧道</text>

  <!-- Internal server arrows -->
  <line x1="340" y1="410" x2="380" y2="410" stroke="#34d399" stroke-width="1.5" marker-end="url(#arrowGreen)"/>
  <rect x="345" y="398" width="50" height="18" rx="4" fill="#0d1025" opacity="0.9"/>
  <text x="370" y="411" text-anchor="middle" fill="#6ee7b7" font-size="10" font-family="system-ui, 'Microsoft YaHei', 'PingFang SC', sans-serif">路由</text>

  <line x1="600" y1="410" x2="640" y2="410" stroke="#34d399" stroke-width="1.5" marker-end="url(#arrowGreen)"/>
  <rect x="610" y="398" width="38" height="18" rx="4" fill="#0d1025" opacity="0.9"/>
  <text x="629" y="411" text-anchor="middle" fill="#6ee7b7" font-size="10" font-family="system-ui, 'Microsoft YaHei', 'PingFang SC', sans-serif">查询</text>

  <line x1="600" y1="432" x2="880" y2="432" stroke="#34d399" stroke-width="1.5" marker-end="url(#arrowGreen)"/>
  <rect x="720" y="420" width="58" height="18" rx="4" fill="#0d1025" opacity="0.9"/>
  <text x="749" y="433" text-anchor="middle" fill="#6ee7b7" font-size="10" font-family="system-ui, 'Microsoft YaHei', 'PingFang SC', sans-serif">验证</text>

  <!-- Internal agent arrows -->
  <line x1="340" y1="620" x2="380" y2="620" stroke="#fbbf24" stroke-width="1.5" marker-end="url(#arrowOrange)"/>
  <rect x="348" y="608" width="50" height="18" rx="4" fill="#0d1025" opacity="0.9"/>
  <text x="373" y="621" text-anchor="middle" fill="#fde68a" font-size="10" font-family="system-ui, 'Microsoft YaHei', 'PingFang SC', sans-serif">创建</text>

  <line x1="600" y1="620" x2="640" y2="620" stroke="#fbbf24" stroke-width="1.5" marker-end="url(#arrowOrange)"/>
  <rect x="608" y="608" width="50" height="18" rx="4" fill="#0d1025" opacity="0.9"/>
  <text x="633" y="621" text-anchor="middle" fill="#fde68a" font-size="10" font-family="system-ui, 'Microsoft YaHei', 'PingFang SC', sans-serif">输出</text>

  <line x1="840" y1="620" x2="880" y2="620" stroke="#fbbf24" stroke-width="1.5" marker-end="url(#arrowOrange)"/>
  <rect x="848" y="608" width="50" height="18" rx="4" fill="#0d1025" opacity="0.9"/>
  <text x="873" y="621" text-anchor="middle" fill="#fde68a" font-size="10" font-family="system-ui, 'Microsoft YaHei', 'PingFang SC', sans-serif">缓冲</text>

  <!-- Session persistence: TunnelManager to PtyManager -->
  <path d="M 490 460 C 490 490, 490 500, 490 530" stroke="#fbbf24" stroke-width="1.5" stroke-dasharray="5,3" fill="none" marker-end="url(#arrowOrange)"/>
  <rect x="445" y="483" width="96" height="20" rx="5" fill="#0d1025" opacity="0.9"/>
  <text x="493" y="497" text-anchor="middle" fill="#fde68a" font-size="10" font-family="system-ui, 'Microsoft YaHei', 'PingFang SC', sans-serif">session:pause</text>

  <!-- Legend -->
  <g transform="translate(50, 720)">
    <rect x="0" y="0" width="620" height="65" rx="12" fill="rgba(15,17,30,0.85)" stroke="rgba(71,85,105,0.3)" stroke-width="1"/>
    <text x="18" y="24" fill="#cbd5e1" font-size="12" font-weight="700" font-family="system-ui, 'Microsoft YaHei', 'PingFang SC', sans-serif">图例</text>
    <line x1="18" y1="40" x2="140" y2="40" stroke="#60a5fa" stroke-width="2"/>
    <text x="150" y="44" fill="#94a3b8" font-size="11" font-family="system-ui, 'Microsoft YaHei', 'PingFang SC', sans-serif">WebSocket 连接</text>
    <line x1="300" y1="40" x2="420" y2="40" stroke="#34d399" stroke-width="1.5"/>
    <text x="430" y="44" fill="#94a3b8" font-size="11" font-family="system-ui, 'Microsoft YaHei', 'PingFang SC', sans-serif">内部数据流</text>
    <line x1="18" y1="56" x2="140" y2="56" stroke="#fbbf24" stroke-width="1.5" stroke-dasharray="5,3"/>
    <text x="150" y="60" fill="#94a3b8" font-size="11" font-family="system-ui, 'Microsoft YaHei', 'PingFang SC', sans-serif">会话控制</text>
    <line x1="300" y1="56" x2="420" y2="56" stroke="#a78bfa" stroke-width="1.5"/>
    <text x="430" y="60" fill="#94a3b8" font-size="11" font-family="system-ui, 'Microsoft YaHei', 'PingFang SC', sans-serif">反向隧道</text>
  </g>

  <!-- Decorative dots -->
  <circle cx="1150" cy="42" r="4" fill="#60a5fa" opacity="0.6"/>
  <circle cx="1165" cy="42" r="4" fill="#a78bfa" opacity="0.6"/>
  <circle cx="1180" cy="42" r="4" fill="#34d399" opacity="0.6"/>
</svg>
