<svg xmlns="http://www.w3.org/2000/svg" viewBox="0 0 1200 800">
  <defs>
    <linearGradient id="bgGrad" x1="0%" y1="0%" x2="100%" y2="100%">
      <stop offset="0%" stop-color="#0a0a1a"/>
      <stop offset="50%" stop-color="#0d1025"/>
      <stop offset="100%" stop-color="#0a0a1a"/>
    </linearGradient>
    <linearGradient id="glassBlue" x1="0%" y1="0%" x2="100%" y2="100%">
      <stop offset="0%" stop-color="rgba(59,130,246,0.15)"/>
      <stop offset="100%" stop-color="rgba(59,130,246,0.05)"/>
    </linearGradient>
    <linearGradient id="glassPurple" x1="0%" y1="0%" x2="100%" y2="100%">
      <stop offset="0%" stop-color="rgba(139,92,246,0.15)"/>
      <stop offset="100%" stop-color="rgba(139,92,246,0.05)"/>
    </linearGradient>
    <linearGradient id="glassGreen" x1="0%" y1="0%" x2="100%" y2="100%">
      <stop offset="0%" stop-color="rgba(16,185,129,0.15)"/>
      <stop offset="100%" stop-color="rgba(16,185,129,0.05)"/>
    </linearGradient>
    <linearGradient id="glassOrange" x1="0%" y1="0%" x2="100%" y2="100%">
      <stop offset="0%" stop-color="rgba(245,158,11,0.15)"/>
      <stop offset="100%" stop-color="rgba(245,158,11,0.05)"/>
    </linearGradient>
    <linearGradient id="glassCyan" x1="0%" y1="0%" x2="100%" y2="100%">
      <stop offset="0%" stop-color="rgba(6,182,212,0.15)"/>
      <stop offset="100%" stop-color="rgba(6,182,212,0.05)"/>
    </linearGradient>
    <filter id="glow" x="-20%" y="-20%" width="140%" height="140%">
      <feGaussianBlur stdDeviation="6" result="blur"/>
      <feMerge><feMergeNode in="blur"/><feMergeNode in="SourceGraphic"/></feMerge>
    </filter>
    <filter id="glowSoft" x="-10%" y="-10%" width="120%" height="120%">
      <feGaussianBlur stdDeviation="3" result="blur"/>
      <feMerge><feMergeNode in="blur"/><feMergeNode in="SourceGraphic"/></feMerge>
    </filter>
    <filter id="shadow" x="-10%" y="-10%" width="130%" height="130%">
      <feDropShadow dx="0" dy="4" stdDeviation="8" flood-color="#000" flood-opacity="0.4"/>
    </filter>
    <marker id="arrowBlue" viewBox="0 0 10 7" refX="9" refY="3.5" markerWidth="10" markerHeight="7" orient="auto">
      <path d="M 0 0 L 10 3.5 L 0 7 z" fill="#3b82f6"/>
    </marker>
    <marker id="arrowPurple" viewBox="0 0 10 7" refX="9" refY="3.5" markerWidth="10" markerHeight="7" orient="auto">
      <path d="M 0 0 L 10 3.5 L 0 7 z" fill="#8b5cf6"/>
    </marker>
    <marker id="arrowGreen" viewBox="0 0 10 7" refX="9" refY="3.5" markerWidth="10" markerHeight="7" orient="auto">
      <path d="M 0 0 L 10 3.5 L 0 7 z" fill="#10b981"/>
    </marker>
    <marker id="arrowOrange" viewBox="0 0 10 7" refX="9" refY="3.5" markerWidth="10" markerHeight="7" orient="auto">
      <path d="M 0 0 L 10 3.5 L 0 7 z" fill="#f59e0b"/>
    </marker>
    <marker id="arrowCyan" viewBox="0 0 10 7" refX="9" refY="3.5" markerWidth="10" markerHeight="7" orient="auto">
      <path d="M 0 0 L 10 3.5 L 0 7 z" fill="#06b6d4"/>
    </marker>
  </defs>

  <!-- Background -->
  <rect width="1200" height="800" fill="url(#bgGrad)"/>

  <!-- Subtle grid -->
  <g opacity="0.03" stroke="#ffffff" stroke-width="0.5">
    <line x1="0" y1="0" x2="0" y2="800"/><line x1="40" y1="0" x2="40" y2="800"/>
    <line x1="80" y1="0" x2="80" y2="800"/><line x1="120" y1="0" x2="120" y2="800"/>
    <line x1="160" y1="0" x2="160" y2="800"/><line x1="200" y1="0" x2="200" y2="800"/>
    <line x1="240" y1="0" x2="240" y2="800"/><line x1="280" y1="0" x2="280" y2="800"/>
    <line x1="320" y1="0" x2="320" y2="800"/><line x1="360" y1="0" x2="360" y2="800"/>
    <line x1="400" y1="0" x2="400" y2="800"/><line x1="440" y1="0" x2="440" y2="800"/>
    <line x1="480" y1="0" x2="480" y2="800"/><line x1="520" y1="0" x2="520" y2="800"/>
    <line x1="560" y1="0" x2="560" y2="800"/><line x1="600" y1="0" x2="600" y2="800"/>
    <line x1="640" y1="0" x2="640" y2="800"/><line x1="680" y1="0" x2="680" y2="800"/>
    <line x1="720" y1="0" x2="720" y2="800"/><line x1="760" y1="0" x2="760" y2="800"/>
    <line x1="800" y1="0" x2="800" y2="800"/><line x1="840" y1="0" x2="840" y2="800"/>
    <line x1="880" y1="0" x2="880" y2="800"/><line x1="920" y1="0" x2="920" y2="800"/>
    <line x1="960" y1="0" x2="960" y2="800"/><line x1="1000" y1="0" x2="1000" y2="800"/>
    <line x1="1040" y1="0" x2="1040" y2="800"/><line x1="1080" y1="0" x2="1080" y2="800"/>
    <line x1="1120" y1="0" x2="1120" y2="800"/><line x1="1160" y1="0" x2="1160" y2="800"/>
    <line x1="0" y1="40" x2="1200" y2="40"/><line x1="0" y1="80" x2="1200" y2="80"/>
    <line x1="0" y1="120" x2="1200" y2="120"/><line x1="0" y1="160" x2="1200" y2="160"/>
    <line x1="0" y1="200" x2="1200" y2="200"/><line x1="0" y1="240" x2="1200" y2="240"/>
    <line x1="0" y1="280" x2="1200" y2="280"/><line x1="0" y1="320" x2="1200" y2="320"/>
    <line x1="0" y1="360" x2="1200" y2="360"/><line x1="0" y1="400" x2="1200" y2="400"/>
    <line x1="0" y1="440" x2="1200" y2="440"/><line x1="0" y1="480" x2="1200" y2="480"/>
    <line x1="0" y1="520" x2="1200" y2="520"/><line x1="0" y1="560" x2="1200" y2="560"/>
    <line x1="0" y1="600" x2="1200" y2="600"/><line x1="0" y1="640" x2="1200" y2="640"/>
    <line x1="0" y1="680" x2="1200" y2="680"/><line x1="0" y1="720" x2="1200" y2="720"/>
    <line x1="0" y1="760" x2="1200" y2="760"/>
  </g>

  <!-- Title -->
  <text x="600" y="45" text-anchor="middle" fill="#e2e8f0" font-size="24" font-weight="700" font-family="system-ui, sans-serif" letter-spacing="1">remoteCli Architecture</text>
  <text x="600" y="68" text-anchor="middle" fill="#64748b" font-size="13" font-family="system-ui, sans-serif">Reverse Tunnel Remote Terminal System</text>
  <line x1="350" y1="80" x2="850" y2="80" stroke="#1e293b" stroke-width="1"/>

  <!-- Layer Labels -->
  <text x="60" y="115" fill="#475569" font-size="10" font-weight="600" font-family="system-ui, sans-serif" letter-spacing="2">CLIENT LAYER</text>
  <line x1="60" y1="121" x2="190" y2="121" stroke="#334155" stroke-width="1"/>
  <text x="60" y="305" fill="#475569" font-size="10" font-weight="600" font-family="system-ui, sans-serif" letter-spacing="2">GATEWAY / SERVER LAYER</text>
  <line x1="60" y1="311" x2="190" y2="311" stroke="#334155" stroke-width="1"/>
  <text x="60" y="515" fill="#475569" font-size="10" font-weight="600" font-family="system-ui, sans-serif" letter-spacing="2">AGENT / TERMINAL LAYER</text>
  <line x1="60" y1="521" x2="190" y2="521" stroke="#334155" stroke-width="1"/>

  <!-- ====== CLIENT LAYER ====== -->
  <!-- Mobile Browser -->
  <g filter="url(#shadow)">
    <rect x="100" y="130" width="200" height="140" rx="16" fill="url(#glassBlue)" stroke="rgba(59,130,246,0.3)" stroke-width="1.5"/>
    <circle cx="125" cy="150" r="4" fill="#ef4444" opacity="0.7"/>
    <circle cx="140" cy="150" r="4" fill="#f59e0b" opacity="0.7"/>
    <circle cx="155" cy="150" r="4" fill="#10b981" opacity="0.7"/>
    <text x="200" y="190" text-anchor="middle" fill="#e2e8f0" font-size="16" font-weight="600" font-family="system-ui, sans-serif">Mobile Browser</text>
    <text x="200" y="215" text-anchor="middle" fill="#94a3b8" font-size="12" font-family="system-ui, sans-serif">Vue 3 + xterm.js</text>
    <text x="200" y="235" text-anchor="middle" fill="#64748b" font-size="11" font-family="system-ui, sans-serif">PWA / Pinia</text>
    <text x="200" y="255" text-anchor="middle" fill="#64748b" font-size="11" font-family="system-ui, sans-serif">JWT Auth</text>
  </g>

  <!-- WebSocket Client -->
  <g filter="url(#shadow)">
    <rect x="360" y="130" width="200" height="140" rx="16" fill="url(#glassCyan)" stroke="rgba(6,182,212,0.3)" stroke-width="1.5"/>
    <text x="460" y="175" text-anchor="middle" fill="#e2e8f0" font-size="14" font-weight="600" font-family="system-ui, sans-serif">WebSocket Client</text>
    <text x="460" y="200" text-anchor="middle" fill="#94a3b8" font-size="12" font-family="system-ui, sans-serif">Message Protocol</text>
    <text x="460" y="222" text-anchor="middle" fill="#64748b" font-size="11" font-family="system-ui, sans-serif">session:input/output</text>
    <text x="460" y="242" text-anchor="middle" fill="#64748b" font-size="11" font-family="system-ui, sans-serif">session:pause/resume</text>
  </g>

  <!-- Shared Types -->
  <g filter="url(#shadow)">
    <rect x="620" y="130" width="200" height="140" rx="16" fill="url(#glassPurple)" stroke="rgba(139,92,246,0.3)" stroke-width="1.5"/>
    <text x="720" y="175" text-anchor="middle" fill="#e2e8f0" font-size="14" font-weight="600" font-family="system-ui, sans-serif">Shared Types</text>
    <text x="720" y="200" text-anchor="middle" fill="#94a3b8" font-size="12" font-family="system-ui, sans-serif">packages/shared</text>
    <text x="720" y="222" text-anchor="middle" fill="#64748b" font-size="11" font-family="system-ui, sans-serif">Message interface</text>
    <text x="720" y="242" text-anchor="middle" fill="#64748b" font-size="11" font-family="system-ui, sans-serif">MessageType enum</text>
  </g>

  <!-- pnpm monorepo badge -->
  <rect x="930" y="140" width="180" height="50" rx="10" fill="rgba(100,116,139,0.1)" stroke="#334155" stroke-width="1"/>
  <text x="1020" y="162" text-anchor="middle" fill="#94a3b8" font-size="12" font-weight="600" font-family="system-ui, sans-serif">pnpm monorepo</text>
  <text x="1020" y="180" text-anchor="middle" fill="#64748b" font-size="10" font-family="system-ui, sans-serif">4 packages</text>

  <!-- ====== SERVER LAYER ====== -->
  <!-- Cloud Server container -->
  <rect x="80" y="320" width="1040" height="160" rx="20" fill="rgba(30,41,59,0.2)" stroke="#1e293b" stroke-width="1" stroke-dasharray="6,4"/>
  <text x="100" y="345" fill="#475569" font-size="11" font-weight="600" font-family="system-ui, sans-serif" letter-spacing="1">LINUX CLOUD SERVER</text>

  <!-- Fastify Server -->
  <g filter="url(#shadow)">
    <rect x="120" y="360" width="220" height="100" rx="14" fill="url(#glassGreen)" stroke="rgba(16,185,129,0.3)" stroke-width="1.5"/>
    <text x="230" y="398" text-anchor="middle" fill="#e2e8f0" font-size="15" font-weight="600" font-family="system-ui, sans-serif">Fastify Server</text>
    <text x="230" y="420" text-anchor="middle" fill="#94a3b8" font-size="12" font-family="system-ui, sans-serif">packages/server</text>
    <text x="230" y="442" text-anchor="middle" fill="#64748b" font-size="11" font-family="system-ui, sans-serif">HTTP + WS endpoints</text>
  </g>

  <!-- Tunnel Manager -->
  <g filter="url(#shadow)">
    <rect x="380" y="360" width="220" height="100" rx="14" fill="url(#glassOrange)" stroke="rgba(245,158,11,0.3)" stroke-width="1.5"/>
    <text x="490" y="398" text-anchor="middle" fill="#e2e8f0" font-size="15" font-weight="600" font-family="system-ui, sans-serif">TunnelManager</text>
    <text x="490" y="420" text-anchor="middle" fill="#94a3b8" font-size="12" font-family="system-ui, sans-serif">Connection Routing</text>
    <text x="490" y="442" text-anchor="middle" fill="#64748b" font-size="11" font-family="system-ui, sans-serif">session:pause / resume</text>
  </g>

  <!-- SQLite DB -->
  <g filter="url(#shadow)">
    <rect x="640" y="360" width="200" height="100" rx="14" fill="url(#glassBlue)" stroke="rgba(59,130,246,0.3)" stroke-width="1.5"/>
    <ellipse cx="740" cy="378" rx="40" ry="10" fill="rgba(59,130,246,0.2)" stroke="rgba(59,130,246,0.4)" stroke-width="1"/>
    <rect x="700" y="378" width="80" height="30" fill="rgba(59,130,246,0.15)" stroke="rgba(59,130,246,0.3)" stroke-width="1"/>
    <ellipse cx="740" cy="408" rx="40" ry="10" fill="rgba(59,130,246,0.2)" stroke="rgba(59,130,246,0.4)" stroke-width="1"/>
    <text x="740" y="440" text-anchor="middle" fill="#94a3b8" font-size="12" font-family="system-ui, sans-serif">sql.js / SQLite</text>
    <text x="740" y="458" text-anchor="middle" fill="#64748b" font-size="11" font-family="system-ui, sans-serif">Users, Agents, Tokens</text>
  </g>

  <!-- Auth Module -->
  <g filter="url(#shadow)">
    <rect x="880" y="360" width="200" height="100" rx="14" fill="url(#glassPurple)" stroke="rgba(139,92,246,0.3)" stroke-width="1.5"/>
    <text x="980" y="398" text-anchor="middle" fill="#e2e8f0" font-size="15" font-weight="600" font-family="system-ui, sans-serif">Auth Module</text>
    <text x="980" y="420" text-anchor="middle" fill="#94a3b8" font-size="12" font-family="system-ui, sans-serif">bcryptjs + jwt</text>
    <text x="980" y="442" text-anchor="middle" fill="#64748b" font-size="11" font-family="system-ui, sans-serif">Token validation</text>
  </g>

  <!-- ====== AGENT LAYER ====== -->
  <!-- Windows Agent container -->
  <rect x="80" y="530" width="1040" height="160" rx="20" fill="rgba(30,41,59,0.2)" stroke="#1e293b" stroke-width="1" stroke-dasharray="6,4"/>
  <text x="100" y="555" fill="#475569" font-size="11" font-weight="600" font-family="system-ui, sans-serif" letter-spacing="1">WINDOWS AGENT</text>

  <!-- WebSocket Agent -->
  <g filter="url(#shadow)">
    <rect x="120" y="570" width="220" height="100" rx="14" fill="url(#glassCyan)" stroke="rgba(6,182,212,0.3)" stroke-width="1.5"/>
    <text x="230" y="608" text-anchor="middle" fill="#e2e8f0" font-size="15" font-weight="600" font-family="system-ui, sans-serif">WebSocket Agent</text>
    <text x="230" y="630" text-anchor="middle" fill="#94a3b8" font-size="12" font-family="system-ui, sans-serif">packages/agent</text>
    <text x="230" y="652" text-anchor="middle" fill="#64748b" font-size="11" font-family="system-ui, sans-serif">register / heartbeat</text>
  </g>

  <!-- PtyManager -->
  <g filter="url(#shadow)">
    <rect x="380" y="570" width="220" height="100" rx="14" fill="url(#glassOrange)" stroke="rgba(245,158,11,0.3)" stroke-width="1.5"/>
    <text x="490" y="608" text-anchor="middle" fill="#e2e8f0" font-size="15" font-weight="600" font-family="system-ui, sans-serif">PtyManager</text>
    <text x="490" y="630" text-anchor="middle" fill="#94a3b8" font-size="12" font-family="system-ui, sans-serif">node-pty</text>
    <text x="490" y="652" text-anchor="middle" fill="#64748b" font-size="11" font-family="system-ui, sans-serif">buffer / pause / resume</text>
  </g>

  <!-- PowerShell -->
  <g filter="url(#shadow)">
    <rect x="640" y="570" width="200" height="100" rx="14" fill="url(#glassGreen)" stroke="rgba(16,185,129,0.3)" stroke-width="1.5"/>
    <text x="740" y="608" text-anchor="middle" fill="#e2e8f0" font-size="15" font-weight="600" font-family="system-ui, sans-serif">PowerShell</text>
    <text x="740" y="630" text-anchor="middle" fill="#94a3b8" font-size="12" font-family="system-ui, sans-serif">PTY Process</text>
    <text x="740" y="652" text-anchor="middle" fill="#64748b" font-size="11" font-family="system-ui, sans-serif">Terminal I/O</text>
  </g>

  <!-- Session Buffer -->
  <g filter="url(#shadow)">
    <rect x="880" y="570" width="200" height="100" rx="14" fill="url(#glassPurple)" stroke="rgba(139,92,246,0.3)" stroke-width="1.5"/>
    <text x="980" y="608" text-anchor="middle" fill="#e2e8f0" font-size="15" font-weight="600" font-family="system-ui, sans-serif">Session Buffer</text>
    <text x="980" y="630" text-anchor="middle" fill="#94a3b8" font-size="12" font-family="system-ui, sans-serif">30min TTL</text>
    <text x="980" y="652" text-anchor="middle" fill="#64748b" font-size="11" font-family="system-ui, sans-serif">Output buffering</text>
  </g>

  <!-- ====== ARROWS ====== -->
  <!-- Client internal -->
  <line x1="300" y1="200" x2="360" y2="200" stroke="#3b82f6" stroke-width="2" marker-end="url(#arrowBlue)"/>
  <rect x="305" y="188" width="50" height="16" rx="3" fill="#0d1025" opacity="0.95"/>
  <text x="330" y="200" text-anchor="middle" fill="#94a3b8" font-size="10" font-family="system-ui, sans-serif">render</text>

  <line x1="560" y1="200" x2="620" y2="200" stroke="#3b82f6" stroke-width="2" marker-end="url(#arrowBlue)"/>
  <rect x="570" y="188" width="50" height="16" rx="3" fill="#0d1025" opacity="0.95"/>
  <text x="595" y="200" text-anchor="middle" fill="#94a3b8" font-size="10" font-family="system-ui, sans-serif">types</text>

  <!-- Browser to Server (WebSocket) -->
  <path d="M 200 270 C 200 295, 230 320, 230 360" stroke="#3b82f6" stroke-width="2" fill="none" marker-end="url(#arrowBlue)"/>
  <rect x="178" y="305" width="88" height="16" rx="3" fill="#0d1025" opacity="0.95"/>
  <text x="222" y="317" text-anchor="middle" fill="#60a5fa" font-size="10" font-weight="500" font-family="system-ui, sans-serif">WebSocket</text>

  <!-- Server to Agent (WebSocket reverse tunnel) -->
  <path d="M 230 480 C 230 505, 230 530, 230 570" stroke="#8b5cf6" stroke-width="2" fill="none" marker-end="url(#arrowPurple)"/>
  <rect x="200" y="515" width="88" height="16" rx="3" fill="#0d1025" opacity="0.95"/>
  <text x="244" y="527" text-anchor="middle" fill="#a78bfa" font-size="10" font-weight="500" font-family="system-ui, sans-serif">WebSocket</text>

  <!-- Internal server arrows -->
  <line x1="340" y1="410" x2="380" y2="410" stroke="#10b981" stroke-width="1.5" marker-end="url(#arrowGreen)"/>
  <rect x="345" y="398" width="50" height="16" rx="3" fill="#0d1025" opacity="0.95"/>
  <text x="370" y="410" text-anchor="middle" fill="#6ee7b7" font-size="10" font-family="system-ui, sans-serif">route</text>

  <line x1="600" y1="410" x2="640" y2="410" stroke="#10b981" stroke-width="1.5" marker-end="url(#arrowGreen)"/>
  <rect x="610" y="398" width="38" height="16" rx="3" fill="#0d1025" opacity="0.95"/>
  <text x="629" y="410" text-anchor="middle" fill="#6ee7b7" font-size="10" font-family="system-ui, sans-serif">query</text>

  <line x1="600" y1="430" x2="880" y2="430" stroke="#10b981" stroke-width="1.5" marker-end="url(#arrowGreen)"/>
  <rect x="720" y="418" width="55" height="16" rx="3" fill="#0d1025" opacity="0.95"/>
  <text x="747" y="430" text-anchor="middle" fill="#6ee7b7" font-size="10" font-family="system-ui, sans-serif">validate</text>

  <!-- Internal agent arrows -->
  <line x1="340" y1="620" x2="380" y2="620" stroke="#f59e0b" stroke-width="1.5" marker-end="url(#arrowOrange)"/>
  <rect x="348" y="608" width="50" height="16" rx="3" fill="#0d1025" opacity="0.95"/>
  <text x="373" y="620" text-anchor="middle" fill="#fbbf24" font-size="10" font-family="system-ui, sans-serif">spawn</text>

  <line x1="600" y1="620" x2="640" y2="620" stroke="#f59e0b" stroke-width="1.5" marker-end="url(#arrowOrange)"/>
  <rect x="608" y="608" width="50" height="16" rx="3" fill="#0d1025" opacity="0.95"/>
  <text x="633" y="620" text-anchor="middle" fill="#fbbf24" font-size="10" font-family="system-ui, sans-serif">output</text>

  <line x1="840" y1="620" x2="880" y2="620" stroke="#f59e0b" stroke-width="1.5" marker-end="url(#arrowOrange)"/>
  <rect x="848" y="608" width="50" height="16" rx="3" fill="#0d1025" opacity="0.95"/>
  <text x="873" y="620" text-anchor="middle" fill="#fbbf24" font-size="10" font-family="system-ui, sans-serif">buffer</text>

  <!-- Session persistence: TunnelManager to PtyManager -->
  <path d="M 490 460 C 490 490, 490 500, 490 530" stroke="#f59e0b" stroke-width="1.5" stroke-dasharray="5,3" fill="none" marker-end="url(#arrowOrange)"/>
  <rect x="448" y="485" width="90" height="16" rx="3" fill="#0d1025" opacity="0.95"/>
  <text x="493" y="497" text-anchor="middle" fill="#fbbf24" font-size="10" font-family="system-ui, sans-serif">session:pause</text>

  <!-- Legend -->
  <g transform="translate(50, 720)">
    <rect x="0" y="0" width="560" height="60" rx="10" fill="rgba(15,17,30,0.8)" stroke="#1e293b" stroke-width="1"/>
    <text x="15" y="22" fill="#94a3b8" font-size="11" font-weight="600" font-family="system-ui, sans-serif">LEGEND</text>
    <line x1="15" y1="36" x2="130" y2="36" stroke="#3b82f6" stroke-width="2"/>
    <text x="140" y="40" fill="#94a3b8" font-size="10" font-family="system-ui, sans-serif">WebSocket Connection</text>
    <line x1="290" y1="36" x2="410" y2="36" stroke="#10b981" stroke-width="1.5"/>
    <text x="420" y="40" fill="#94a3b8" font-size="10" font-family="system-ui, sans-serif">Internal Flow</text>
    <line x1="15" y1="52" x2="130" y2="52" stroke="#f59e0b" stroke-width="1.5" stroke-dasharray="5,3"/>
    <text x="140" y="56" fill="#94a3b8" font-size="10" font-family="system-ui, sans-serif">Session Control</text>
    <line x1="290" y1="52" x2="410" y2="52" stroke="#8b5cf6" stroke-width="1.5"/>
    <text x="420" y="56" fill="#94a3b8" font-size="10" font-family="system-ui, sans-serif">Reverse Tunnel</text>
  </g>

  <!-- Decorative dots -->
  <circle cx="1150" cy="40" r="4" fill="#3b82f6" opacity="0.5"/>
  <circle cx="1165" cy="40" r="4" fill="#8b5cf6" opacity="0.5"/>
  <circle cx="1180" cy="40" r="4" fill="#10b981" opacity="0.5"/>
</svg>
